<?xml version="1.0" standalone="no"?><!DOCTYPE svg PUBLIC "-//W3C//DTD SVG 1.1//EN" "http://www.w3.org/Graphics/SVG/1.1/DTD/svg11.dtd"><svg t="1572090552349" class="icon" viewBox="0 0 1024 1024" version="1.1" xmlns="http://www.w3.org/2000/svg" p-id="2044" xmlns:xlink="http://www.w3.org/1999/xlink" width="200" height="200"><defs><style type="text/css"></style></defs><path d="M978.218 519.831l-469.734-439.2-469.734 437.917c-4.46 4.161-7.239 10.074-7.239 16.635 0 6.007 2.331 11.471 6.137 15.535 4.158 4.438 10.073 7.213 16.636 7.213 6.013 0 11.483-2.329 15.555-6.134l438.614-408.889 438.649 410.141c4.052 3.806 9.522 6.144 15.538 6.144 0.010 0 0.019 0 0.029 0 0.013 0 0.031 0 0.048 0 6.537 0 12.428-2.768 16.563-7.196 3.82-4.066 6.16-9.537 6.16-15.554 0-6.549-2.771-12.451-7.205-16.597zM834.88 528.853c0 0 0 0 0 0-12.57 0-22.762 10.183-22.773 22.751v348.838h-182.185v-242.674h-242.909v242.674h-182.179v-348.837c-0.006-12.566-10.195-22.752-22.763-22.752-0.002 0-0.004 0-0.005 0-0.003 0-0.006 0-0.011 0-12.567 0-22.756 10.185-22.763 22.751v394.336h273.275v-242.663h151.814v242.669h273.268v-394.341c-0.013-12.566-10.201-22.749-22.768-22.752zM675.474 202.768h136.637v121.334c0.003 12.57 10.193 22.757 22.763 22.757 0.004 0 0.007 0 0.012 0 0.001 0 0.003 0 0.005 0 12.57 0 22.759-10.188 22.763-22.757v-166.833h-182.174c-12.414 0.197-22.402 10.306-22.402 22.749 0 12.441 9.985 22.549 22.378 22.749z" p-id="2045"></path></svg>